<?xml version="1.0" standalone="no"?>
<!DOCTYPE svg PUBLIC "-//W3C//DTD SVG 20010904//EN"
 "http://www.w3.org/TR/2001/REC-SVG-20010904/DTD/svg10.dtd">
<svg version="1.0" xmlns="http://www.w3.org/2000/svg"
 width="512.000000pt" height="512.000000pt" viewBox="0 0 512.000000 512.000000"
 preserveAspectRatio="xMidYMid meet">
<metadata>
Created by potrace 1.14, written by Peter Selinger 2001-2017
</metadata>
<g transform="translate(0.000000,512.000000) scale(0.100000,-0.100000)"
fill="#000000" stroke="none">
<path d="M2418 5110 c-122 -21 -261 -78 -367 -149 -58 -39 -211 -185 -211
-201 0 -4 -9 -18 -21 -31 -29 -33 -87 -151 -111 -223 -76 -230 -60 -445 49
-693 4 -10 -32 -13 -164 -13 -198 0 -247 -11 -321 -70 -160 -126 -141 -382 36
-485 l52 -30 0 -107 c0 -105 -1 -108 -22 -109 -214 -8 -405 -165 -462 -379
-22 -82 -22 -2158 0 -2240 47 -180 185 -318 364 -364 46 -12 253 -15 1315 -15
856 0 1276 3 1310 10 134 29 280 141 338 259 59 120 57 79 57 1229 0 1154 2
1110 -58 1230 -35 71 -132 171 -202 209 -48 26 -173 65 -197 61 -41 -7 -43 -2
-43 109 l0 107 46 24 c44 24 98 80 123 129 32 62 36 169 9 240 -24 65 -90 135
-155 165 -43 20 -67 22 -236 25 -139 3 -187 7 -183 15 72 164 95 275 92 437
-7 277 -133 519 -360 689 -154 116 -311 171 -506 176 -69 1 -146 -1 -172 -5z"/>
</g>
</svg>
