<?xml version="1.0" standalone="no"?>
<!DOCTYPE svg PUBLIC "-//W3C//DTD SVG 20010904//EN"
 "http://www.w3.org/TR/2001/REC-SVG-20010904/DTD/svg10.dtd">
<svg version="1.0" xmlns="http://www.w3.org/2000/svg"
 width="512.000000pt" height="512.000000pt" viewBox="0 0 512.000000 512.000000"
 preserveAspectRatio="xMidYMid meet">
<metadata>
Created by potrace 1.14, written by Peter Selinger 2001-2017
</metadata>
<g transform="translate(0.000000,512.000000) scale(0.100000,-0.100000)"
fill="#000000" stroke="none">
<path d="M2417 5110 c-350 -63 -619 -304 -724 -647 -24 -79 -27 -103 -27 -243
0 -140 3 -164 27 -243 15 -49 36 -106 47 -127 11 -22 20 -41 20 -44 0 -2 -87
-6 -192 -8 -178 -3 -196 -5 -235 -26 -63 -33 -106 -74 -139 -134 -26 -47 -29
-62 -29 -138 0 -69 5 -93 23 -127 32 -61 75 -107 127 -134 l45 -24 0 -105 0
-105 -77 -13 c-192 -30 -357 -177 -405 -361 -15 -60 -17 -157 -17 -1124 -1
-1176 -3 -1140 65 -1254 71 -117 181 -203 303 -235 61 -15 168 -17 1322 -17
802 -1 1276 3 1310 9 123 23 260 121 329 236 72 119 69 66 69 1254 0 975 -2
1071 -17 1131 -48 184 -213 331 -404 361 l-78 13 0 105 0 105 45 24 c52 27 95
73 127 134 18 34 23 58 23 127 0 76 -3 91 -29 138 -33 60 -76 101 -139 134
-39 21 -57 23 -234 26 -106 2 -193 6 -193 8 0 3 9 22 20 44 11 21 32 78 47
127 24 79 27 103 27 243 0 140 -3 164 -28 245 -93 306 -318 531 -621 620 -71
21 -117 27 -215 30 -69 2 -147 0 -173 -5z m239 -201 c311 -43 553 -288 594
-602 20 -149 -14 -314 -91 -441 l-37 -61 -208 -3 -208 -2 26 27 c67 70 89 202
48 292 -13 27 -67 91 -140 166 -73 75 -120 130 -120 143 0 30 33 65 62 65 15
0 39 -10 54 -22 66 -52 164 -6 164 77 0 50 -32 92 -95 122 -41 20 -45 25 -45
57 0 25 -8 43 -29 64 -66 65 -171 20 -171 -73 0 -40 -4 -47 -46 -82 -63 -53
-94 -121 -94 -206 0 -97 23 -135 160 -275 68 -70 120 -131 120 -142 0 -57 -67
-82 -117 -43 -16 12 -41 20 -65 20 -83 0 -129 -98 -77 -164 l21 -26 -182 2
-182 3 -37 61 c-129 213 -129 492 0 711 44 74 168 198 242 242 74 44 171 78
249 90 89 12 117 12 204 0z m1071 -1342 c38 -38 38 -96 0 -134 l-27 -28 -1140
0 -1140 0 -27 28 c-49 48 -32 131 32 158 11 4 527 7 1147 6 l1128 -2 27 -28z
m-167 -467 l0 -100 -285 0 c-199 0 -292 -4 -310 -12 -29 -13 -55 -55 -55 -88
0 -29 26 -76 47 -86 10 -5 212 -11 448 -14 413 -5 432 -6 476 -26 60 -28 119
-87 150 -150 l24 -49 0 -1075 0 -1075 -24 -49 c-31 -63 -84 -116 -147 -147
l-49 -24 -1275 0 -1275 0 -49 24 c-27 14 -66 41 -86 61 -20 20 -47 59 -61 86
l-24 49 0 1075 0 1075 21 46 c28 60 87 119 150 150 l49 24 430 5 c237 3 438 9
448 14 21 10 47 57 47 85 0 34 -23 72 -51 87 -22 11 -86 14 -314 14 l-285 0 0
100 0 100 1000 0 1000 0 0 -100z"/>
<path d="M2511 2986 c-87 -48 -50 -186 49 -186 51 0 100 49 100 99 0 75 -83
124 -149 87z"/>
<path d="M1990 2585 c-325 -67 -587 -301 -688 -615 -91 -284 -33 -594 157
-834 161 -202 433 -336 682 -336 l67 0 57 -71 c165 -204 429 -329 695 -329
605 0 1042 597 858 1170 -118 366 -469 630 -839 630 l-68 0 -45 59 c-126 163
-328 286 -535 325 -99 19 -251 19 -341 1z m345 -210 c97 -25 215 -88 286 -154
l64 -59 -50 -21 c-52 -21 -72 -31 -141 -70 l-41 -23 -49 31 c-135 86 -312 93
-458 19 -53 -27 -142 -112 -173 -166 -39 -65 -63 -156 -63 -232 0 -194 128
-370 311 -429 36 -12 37 -13 44 -78 4 -36 13 -87 21 -112 22 -74 21 -75 -41
-67 -171 20 -362 145 -466 304 -183 279 -148 632 86 868 111 112 217 169 370
200 82 16 213 11 300 -11z m721 -386 c157 -22 277 -82 394 -199 118 -118 179
-242 201 -409 19 -141 -17 -310 -93 -439 -42 -73 -167 -198 -240 -240 -129
-76 -298 -112 -439 -93 -97 13 -201 48 -277 93 -73 43 -198 168 -241 241 -129
219 -129 495 0 714 44 74 168 198 242 242 74 44 171 78 249 90 89 12 117 12
204 0z m-794 -65 c32 -17 33 -12 -19 -77 -63 -78 -146 -254 -159 -337 -7 -45
-14 -46 -71 -7 -66 45 -110 146 -98 226 16 104 89 186 190 212 40 10 121 2
157 -17z"/>
<path d="M2889 1871 c-23 -24 -29 -38 -29 -73 0 -40 -4 -47 -46 -82 -63 -53
-94 -121 -94 -206 0 -97 23 -135 160 -275 68 -70 120 -131 120 -142 0 -57 -67
-82 -117 -43 -65 51 -163 4 -163 -78 0 -50 32 -92 95 -122 41 -20 45 -25 45
-57 0 -84 109 -125 171 -64 23 24 29 38 29 73 0 40 4 47 46 82 63 53 94 121
94 206 0 97 -23 135 -160 275 -73 75 -120 130 -120 143 0 30 33 65 62 65 15 0
39 -10 54 -22 66 -52 164 -6 164 77 0 50 -32 92 -95 122 -41 20 -45 25 -45 57
0 51 -45 93 -100 93 -33 0 -48 -6 -71 -29z"/>
</g>
</svg>
